<svg width="220" height="72" viewBox="0 0 220 72" fill="none" xmlns="http://www.w3.org/2000/svg">
  <rect x="1" y="1" width="218" height="70" rx="12" stroke="#0D4A58" stroke-width="2"/>
  <circle cx="30" cy="36" r="8" fill="#01DEA2"/>
  <circle cx="46" cy="24" r="4" fill="#B2D0D5"/>
  <circle cx="46" cy="48" r="4" fill="#B2D0D5"/>
  <path d="M36 32L42 27M36 40L42 45" stroke="#01DEA2" stroke-width="3" stroke-linecap="round"/>
  <path d="M66 47V25H73V33.4H81V25H88V47H81V38.8H73V47H66Z" fill="#F0F6F6"/>
  <path d="M94 47V25H101V47H94Z" fill="#B2D0D5"/>
  <path d="M108 47V25H118.5C125.5 25 130 29.2 130 36C130 42.8 125.5 47 118.5 47H108ZM114.8 41.8H118C122.2 41.8 124 39.7 124 36C124 32.3 122.2 30.2 118 30.2H114.8V41.8Z" fill="#F0F6F6"/>
  <path d="M135 47V25H154V30H141.8V33.8H152.5V38.2H141.8V42H154.3V47H135Z" fill="#B2D0D5"/>
  <path d="M159 47V25H166L176 39.7V25H182V47H176L165 31.8V47H159Z" fill="#F0F6F6"/>
</svg>
