<svg width="220" height="72" viewBox="0 0 220 72" fill="none" xmlns="http://www.w3.org/2000/svg">
  <rect x="1" y="1" width="218" height="70" rx="14" stroke="#0D4A58" stroke-width="2" />
  <path d="M30 46V26H42.5C47.5 26 50.5 28.6 50.5 32.7C50.5 35.6 48.8 37.5 46.3 38.2C49.5 38.9 51.6 41 51.6 44.2C51.6 48.6 48.2 51 42.9 51H30V46ZM36.2 35.8H41.1C43.2 35.8 44.3 34.8 44.3 33.2C44.3 31.5 43.2 30.6 41.1 30.6H36.2V35.8ZM36.2 46.3H41.7C43.9 46.3 45.1 45.2 45.1 43.5C45.1 41.8 43.9 40.8 41.7 40.8H36.2V46.3Z" fill="#01DEA2"/>
  <path d="M65 51V26H71.4V51H65Z" fill="#B2D0D5"/>
  <path d="M78.9 51V26H92.8C98.6 26 102.3 29.1 102.3 34.1C102.3 38.1 99.9 40.8 96 41.7L102.8 51H95.7L89.7 42.4H85.2V51H78.9ZM85.2 37.7H91.4C94.1 37.7 95.8 36.4 95.8 34.1C95.8 31.8 94.1 30.6 91.4 30.6H85.2V37.7Z" fill="#F0F6F6"/>
  <path d="M108 51V26H114.3V46H127.3V51H108Z" fill="#B2D0D5"/>
  <path d="M131.2 51L140.8 26H148.2L157.8 51H151.2L149.3 45.8H139.6L137.7 51H131.2ZM141.2 41H147.7L144.4 31.6L141.2 41Z" fill="#F0F6F6"/>
</svg>
