<svg width="220" height="72" viewBox="0 0 220 72" fill="none" xmlns="http://www.w3.org/2000/svg">
  <rect x="1" y="1" width="218" height="70" rx="12" stroke="#0D4A58" stroke-width="2"/>
  <path d="M24 28L38 23L52 28L49 50H27L24 28Z" fill="#01DEA2"/>
  <path d="M35 26C35 22.7 36.8 20 39.5 20C42.2 20 44 22.7 44 26H41.5C41.5 23.8 40.8 22.5 39.5 22.5C38.2 22.5 37.5 23.8 37.5 26H35Z" fill="#041D23"/>
  <path d="M66 47V25H84V30H72.8V34H82.9V38.8H72.8V47H66Z" fill="#F0F6F6"/>
  <path d="M90 47V25H97V47H90Z" fill="#B2D0D5"/>
  <path d="M104 47V25H114.5C121.5 25 126 29.2 126 36C126 42.8 121.5 47 114.5 47H104ZM110.8 41.8H114C118.2 41.8 120 39.7 120 36C120 32.3 118.2 30.2 114 30.2H110.8V41.8Z" fill="#F0F6F6"/>
  <path d="M131 47V25H138V42H149V47H131Z" fill="#B2D0D5"/>
  <path d="M154 47V25H173V30H160.8V33.8H171.5V38.2H160.8V42H173.3V47H154Z" fill="#F0F6F6"/>
</svg>
