<svg width="220" height="72" viewBox="0 0 220 72" fill="none" xmlns="http://www.w3.org/2000/svg">
  <rect x="1" y="1" width="218" height="70" rx="12" stroke="#0D4A58" stroke-width="2"/>
  <rect x="21" y="20" width="10" height="24" rx="5" fill="#01DEA2"/>
  <rect x="27" y="34" width="24" height="10" rx="5" fill="#B2D0D5"/>
  <rect x="43" y="20" width="10" height="24" rx="5" fill="#F0F6F6"/>
  <path d="M66 47V25H73V33.4H81V25H88V47H81V38.8H73V47H66Z" fill="#F0F6F6"/>
  <path d="M93 47V25H112V30H99.8V33.8H110.5V38.2H99.8V42H112.3V47H93Z" fill="#B2D0D5"/>
  <path d="M117 47V25H124V47H117Z" fill="#F0F6F6"/>
  <path d="M131 47V25H138V42H149V47H131Z" fill="#B2D0D5"/>
  <path d="M154 47V25H163.5C170.5 25 175 29.2 175 36C175 42.8 170.5 47 163.5 47H154ZM160.8 41.8H163C167.2 41.8 169 39.7 169 36C169 32.3 167.2 30.2 163 30.2H160.8V41.8Z" fill="#F0F6F6"/>
</svg>
