<svg width="220" height="72" viewBox="0 0 220 72" fill="none" xmlns="http://www.w3.org/2000/svg">
  <rect x="1" y="1" width="218" height="70" rx="12" stroke="#0D4A58" stroke-width="2"/>
  <path d="M21 46C24 47.5 27.5 48.2 31 48.2C37 48.2 41 45.4 41 40.8C41 37.3 38.9 35.3 33.5 33.6C30.2 32.6 29 31.9 29 30.5C29 29.2 30.1 28.3 32.2 28.3C34.6 28.3 37 29 39 30.1V24.8C37 23.9 34.7 23.4 31.9 23.4C25.9 23.4 22 26.5 22 31.1C22 34.6 24.1 36.8 29.3 38.4C32.7 39.5 34 40.1 34 41.5C34 42.8 32.8 43.6 30.5 43.6C27.5 43.6 24.6 42.7 21 40.9V46Z" fill="#01DEA2"/>
  <path d="M55 47V25H74V30H61.8V33.8H72.5V38.2H61.8V42H74.3V47H55Z" fill="#F0F6F6"/>
  <path d="M79 47V25H88.5C95.5 25 100 29.2 100 36C100 42.8 95.5 47 88.5 47H79ZM85.8 41.8H88C92.2 41.8 94 39.7 94 36C94 32.3 92.2 30.2 88 30.2H85.8V41.8Z" fill="#B2D0D5"/>
  <path d="M105 47V25H112V47H105Z" fill="#F0F6F6"/>
  <path d="M117 47V25H136V30H123.8V33.8H134.5V38.2H123.8V42H136.3V47H117Z" fill="#B2D0D5"/>
  <path d="M141 47V25H151.5C158.5 25 163 29.2 163 36C163 42.8 158.5 47 151.5 47H141ZM147.8 41.8H151C155.2 41.8 157 39.7 157 36C157 32.3 155.2 30.2 151 30.2H147.8V41.8Z" fill="#F0F6F6"/>
</svg>
